<?xml version="1.0" standalone="no"?>
<!DOCTYPE svg PUBLIC "-//W3C//DTD SVG 20010904//EN"
 "http://www.w3.org/TR/2001/REC-SVG-20010904/DTD/svg10.dtd">
<svg version="1.0" xmlns="http://www.w3.org/2000/svg"
 viewBox="0 0 2600.000000 2604.000000"
 preserveAspectRatio="xMidYMid meet">
<metadata>
Created by potrace 1.13, written by Peter Selinger 2001-2015
</metadata>
<g transform="translate(0.000000,2604.000000) scale(0.100000,-0.100000)"
fill="#000000" stroke="none">
<path d="M14520 25043 c-267 -46 -394 -77 -514 -125 -72 -29 -158 -71 -192
-94 -33 -23 -70 -46 -81 -52 l-21 -12 19 49 c25 67 43 172 35 205 -6 25 -7 26
-35 12 -38 -20 -162 -153 -285 -306 -55 -69 -135 -164 -177 -211 -42 -48 -98
-119 -124 -158 -26 -39 -51 -73 -55 -76 -5 -3 -16 5 -24 17 -12 16 -16 47 -16
110 0 49 -3 88 -7 87 -5 0 -29 -24 -54 -54 -32 -36 -54 -74 -69 -121 -13 -38
-43 -108 -67 -156 -25 -48 -47 -106 -50 -128 -5 -39 -7 -40 -24 -24 -18 17
-19 13 -19 -132 0 -103 5 -168 16 -209 11 -43 18 -135 22 -320 4 -143 11 -267
17 -275 5 -8 12 -67 15 -130 5 -115 6 -117 58 -224 42 -88 52 -117 52 -160 0
-83 25 -160 104 -321 40 -82 84 -174 97 -203 13 -30 39 -67 58 -84 33 -29 38
-30 100 -26 l66 5 53 -116 52 -116 0 -191 0 -192 -67 26 c-57 21 -85 26 -168
26 -147 0 -223 -33 -525 -228 -204 -131 -311 -183 -521 -255 -202 -68 -254
-90 -312 -130 -31 -21 -47 -27 -59 -20 -15 9 -79 21 -361 71 -113 20 -123 24
-230 88 -566 340 -609 351 -1244 318 -326 -16 -646 5 -967 65 l-68 13 -19 48
c-44 118 -123 153 -454 201 -99 14 -251 29 -338 32 l-159 6 -26 33 -27 34 -37
-37 -37 -36 -27 22 c-34 26 -121 29 -206 5 -40 -11 -62 -13 -70 -6 -249 199
-494 370 -684 475 -188 105 -341 167 -810 328 -302 104 -506 103 -646 -4 -25
-19 -97 -110 -180 -226 -158 -221 -153 -208 -114 -363 68 -267 260 -641 483
-938 144 -192 359 -427 578 -630 809 -749 1745 -1254 2629 -1416 216 -40 362
-26 468 43 40 27 280 296 304 341 43 84 -8 248 -134 429 -239 344 -290 408
-529 666 -134 145 -161 178 -146 184 10 3 33 12 51 19 27 11 49 11 130 -2 267
-40 345 -71 797 -319 461 -254 832 -379 1122 -378 l113 0 17 -54 c25 -78 40
-88 132 -87 42 1 138 13 214 28 76 14 140 26 143 26 9 0 3 -99 -11 -185 -21
-125 -20 -241 3 -285 33 -67 85 -75 207 -31 260 93 415 144 421 139 3 -4 -3
-35 -15 -70 -65 -200 -106 -436 -98 -563 9 -144 58 -241 211 -419 98 -113 130
-160 171 -249 34 -75 80 -206 74 -212 -13 -11 -315 48 -411 81 -39 13 -110 31
-157 39 -47 9 -158 39 -246 68 -131 42 -173 51 -233 52 -83 0 -96 -9 -87 -65
19 -121 115 -215 285 -281 126 -49 368 -119 520 -151 60 -12 110 -25 110 -28
0 -10 -126 -58 -180 -69 -30 -6 -205 -34 -388 -61 -362 -54 -465 -74 -499 -96
-37 -23 -29 -57 25 -104 78 -69 113 -82 240 -90 129 -8 147 -18 176 -95 29
-74 63 -85 336 -106 139 -11 163 -11 230 5 41 9 127 20 190 22 l115 6 -44 -26
c-24 -15 -58 -26 -78 -26 -40 0 -173 -51 -212 -81 -55 -43 -42 -87 41 -135 96
-57 122 -54 378 36 123 44 274 79 286 67 2 -2 8 -34 14 -73 15 -110 12 -402
-10 -718 -36 -532 -41 -667 -47 -1154 l-6 -484 29 15 c16 8 85 47 152 86 68
39 125 71 126 71 2 0 6 -75 10 -166 l7 -165 -68 -72 c-119 -126 -180 -236
-207 -371 -10 -56 -14 -62 -79 -114 -38 -31 -87 -83 -109 -116 -23 -34 -54
-75 -71 -93 -38 -40 -33 -55 56 -181 36 -51 69 -101 72 -111 3 -10 -10 -58
-28 -107 -30 -79 -40 -94 -88 -133 -151 -121 -218 -183 -233 -214 -22 -48 -20
-111 8 -207 l23 -81 -137 -307 c-270 -606 -413 -858 -671 -1179 -119 -149
-179 -250 -198 -333 -15 -66 -13 -177 4 -245 30 -115 119 -276 186 -336 18
-16 16 -21 -47 -130 -37 -63 -87 -154 -111 -204 -25 -49 -77 -145 -115 -213
-141 -249 -180 -365 -159 -471 l11 -58 -158 -329 c-238 -493 -341 -694 -485
-953 -263 -474 -351 -691 -411 -1016 -52 -274 -76 -702 -56 -980 12 -168 12
-180 -5 -190 -9 -5 -73 -48 -140 -95 -284 -196 -433 -362 -500 -559 -42 -124
-48 -202 -41 -501 4 -169 3 -321 -4 -394 l-10 -120 -69 -105 c-105 -162 -147
-255 -236 -526 -46 -137 -99 -293 -119 -345 -36 -94 -38 -96 -91 -124 -88 -46
-133 -125 -120 -211 6 -42 3 -48 -64 -147 -39 -57 -102 -146 -141 -198 -167
-229 -250 -466 -250 -720 0 -187 46 -282 163 -339 116 -57 170 -66 402 -66
189 0 219 3 300 24 431 113 773 410 987 856 l50 106 126 60 c292 140 365 185
434 272 195 245 234 767 99 1332 -66 280 -72 340 -46 489 28 160 139 521 202
661 66 143 93 211 279 709 111 297 134 351 189 435 126 192 236 426 300 637
19 61 63 245 100 407 104 469 133 550 340 955 186 364 249 509 289 674 l22 86
149 114 c83 63 213 164 290 224 77 60 219 167 316 237 l177 129 103 2 c80 2
118 8 164 26 150 57 304 212 444 444 27 44 99 172 160 284 176 323 311 504
498 668 109 95 250 200 266 197 7 -1 127 -27 267 -57 140 -30 309 -65 375 -77
l120 -22 75 -81 c41 -45 176 -184 300 -311 342 -348 374 -408 410 -762 21
-216 95 -308 285 -358 68 -17 281 -35 429 -35 54 0 169 -7 255 -15 86 -8 179
-16 206 -17 l50 -3 48 -120 c27 -66 84 -221 129 -345 44 -124 93 -253 109
-287 38 -80 114 -163 182 -198 54 -29 54 -29 66 -92 43 -234 157 -446 309
-577 129 -111 209 -150 572 -276 284 -99 333 -117 422 -157 l58 -26 0 -141 c0
-275 67 -438 253 -612 92 -86 195 -151 452 -285 88 -46 199 -110 248 -142 l87
-58 0 -54 c0 -64 21 -85 86 -85 36 0 45 -5 68 -35 45 -59 121 -222 191 -410
77 -210 153 -371 221 -472 189 -277 446 -471 732 -549 31 -9 113 -18 182 -21
105 -4 139 -2 214 16 240 57 421 227 482 451 29 106 23 277 -14 420 -53 206
-163 456 -293 665 -95 153 -283 409 -478 652 -20 26 -42 77 -67 158 -19 65
-44 136 -55 156 -24 49 -92 106 -150 126 l-47 17 -7 66 c-15 150 -35 180 -161
236 -81 36 -85 40 -156 133 -88 116 -277 309 -373 379 -80 59 -234 141 -315
167 -30 10 -73 32 -95 50 -22 18 -114 82 -205 143 -359 241 -424 330 -524 717
-30 116 -66 242 -80 280 -54 142 -156 258 -307 347 -35 21 -66 39 -70 40 -4 2
-15 58 -23 124 -31 241 -96 444 -223 700 l-76 152 96 94 c102 99 133 149 122
199 -4 18 -47 72 -113 142 -173 182 -212 275 -266 648 -33 223 -57 317 -110
424 -54 109 -114 178 -285 324 -180 154 -235 222 -370 464 l-70 125 6 144 c5
133 4 146 -15 185 -28 54 -114 129 -198 173 l-67 35 -34 89 c-19 49 -55 161
-80 250 -53 187 -91 276 -157 364 -27 34 -145 163 -264 285 -162 167 -241 257
-312 357 -104 146 -166 208 -241 242 -48 22 -50 25 -71 93 -42 139 -108 416
-158 660 -43 215 -59 284 -86 376 -5 17 281 291 492 472 136 116 188 182 311
385 135 222 128 206 127 292 -2 131 -113 417 -224 579 -21 31 -78 99 -125 151
-48 52 -106 122 -128 155 -49 72 -80 112 -215 269 -57 67 -135 162 -172 211
l-69 90 10 80 c24 188 -32 286 -203 359 l-65 28 -6 101 c-7 137 -42 234 -128
357 l-38 55 10 70 c5 39 27 144 49 235 52 218 64 299 57 396 -7 99 -31 164
-90 246 -60 84 -108 129 -327 304 -102 82 -246 197 -320 257 -180 145 -399
290 -541 360 -107 53 -117 60 -121 88 -4 27 6 44 76 127 79 94 237 316 269
378 23 45 45 140 52 229 l6 80 -22 -37 c-25 -42 -45 -51 -35 -15 25 81 82 433
111 679 8 69 24 149 35 178 22 55 24 78 11 99 -13 19 -43 6 -103 -45 -28 -24
-55 -44 -60 -44 -17 0 -7 67 32 207 53 192 73 305 68 375 -6 84 -23 98 -114
98 l-73 0 55 78 c31 42 70 95 88 117 42 51 48 70 35 99 -24 52 -158 96 -294
96 -38 0 -113 -9 -165 -20 -143 -30 -145 -29 -70 39 36 33 90 74 120 92 73 43
120 88 120 115 0 28 -35 34 -195 34 -89 0 -151 -7 -240 -25 -122 -25 -190 -31
-212 -17 -9 6 2 23 38 58 27 27 63 72 79 100 18 32 53 70 95 103 60 47 84 75
74 86 -8 7 -74 13 -99 8z m-8505 -3188 c449 -148 790 -343 1234 -704 93 -75
111 -103 91 -140 -13 -26 -1 -51 37 -76 55 -36 146 -131 194 -202 126 -186
372 -363 504 -363 49 0 49 0 217 -153 117 -107 267 -274 372 -416 86 -116 191
-289 182 -299 -15 -14 -128 -13 -209 2 -323 61 -825 339 -1422 789 -859 646
-1374 1195 -1436 1529 -7 36 -9 73 -5 83 9 23 41 17 241 -50z"/>
</g>
</svg>
